<svg width="16" height="16" viewBox="0 0 16 16" fill="none" xmlns="http://www.w3.org/2000/svg">
<g id="bnb-line">
<path id="Vector" d="M7.99995 13.7927L6.66055 13.0172L6.6587 14.5568L8.00002 15.3334L9.34102 14.557L9.33915 13.0174L7.99995 13.7927ZM10.6716 12.246L10.6734 13.7856L14.3334 11.6667V7.43049L13 8.19815V10.898L10.6716 12.246ZM13 6.65962L14.3334 5.89195V4.33335L13.0028 3.56301L11.6722 4.33334L13 5.10209V6.65962ZM10.3416 3.56301L11.6722 2.79267L8.00002 0.666687L4.32779 2.79271L5.65837 3.56305L7.99995 2.20738L10.3416 3.56301ZM4.32779 4.33338L2.99721 3.56305L1.66669 4.33335V5.89222L2.99998 6.65987V5.10211L4.32779 4.33338ZM1.66669 7.43075L2.99998 8.19842V10.898L5.32813 12.2458L5.32629 13.7854L1.66669 11.6667V7.43075ZM11.6666 5.87085L10.3416 5.10369L7.99995 6.45937L5.65841 5.10374L4.33335 5.87087V7.42755L6.66563 8.77035L6.66239 11.4776L7.99995 12.252L9.33729 11.4778L9.33409 8.77029L11.6666 7.42729V5.87085ZM5.32998 10.7063L5.33137 9.54069L4.33335 8.96609V10.1293L5.32998 10.7063ZM6.98895 4.33341L7.99995 4.9187L9.01095 4.33336L8.00002 3.74807L6.98895 4.33341ZM10.6684 9.54062L11.6666 8.96589V10.1292L10.6698 10.7064L10.6684 9.54062Z" fill="currentColor"/>
</g>
</svg>
