<svg width="16" height="16" viewBox="0 0 16 16" fill="none" xmlns="http://www.w3.org/2000/svg">
<g id="contacts-book-2-line">
<path id="Vector" d="M13.3333 14.6668H4C2.89543 14.6668 2 13.7714 2 12.6668V3.3335C2 2.22893 2.89543 1.3335 4 1.3335H13.3333C13.7015 1.3335 14 1.63198 14 2.00016V14.0002C14 14.3684 13.7015 14.6668 13.3333 14.6668ZM12.6667 13.3335V12.0002H4C3.63181 12.0002 3.33333 12.2986 3.33333 12.6668C3.33333 13.035 3.63181 13.3335 4 13.3335H12.6667ZM3.33333 10.7806C3.54185 10.707 3.76624 10.6668 4 10.6668H12.6667V2.66683H4C3.63181 2.66683 3.33333 2.96531 3.33333 3.3335V10.7806ZM8 6.66683C7.2636 6.66683 6.66667 6.06988 6.66667 5.3335C6.66667 4.59712 7.2636 4.00016 8 4.00016C8.7364 4.00016 9.33333 4.59712 9.33333 5.3335C9.33333 6.06988 8.7364 6.66683 8 6.66683ZM6 9.3335C6 8.2289 6.8954 7.3335 8 7.3335C9.1046 7.3335 10 8.2289 10 9.3335H6Z" fill="currentColor"/>
</g>
</svg>
