<svg width="16" height="16" viewBox="0 0 16 16" fill="none" xmlns="http://www.w3.org/2000/svg">
<g id="draft-line">
<path id="Vector" d="M13.3333 1.33331C13.7015 1.33331 14 1.63179 14 1.99998V4.50465L12.6667 5.83798V2.66665H3.33333V13.3333H12.6667V11.4946L14 10.1613V14C14 14.3682 13.7015 14.6666 13.3333 14.6666H2.66667C2.29848 14.6666 2 14.3682 2 14V1.99998C2 1.63179 2.29848 1.33331 2.66667 1.33331H13.3333ZM14.5188 5.87172L15.4616 6.81451L10.2761 12L9.33193 11.9986L9.33333 11.0572L14.5188 5.87172ZM8.66667 7.99998V9.33331H5.33333V7.99998H8.66667ZM10.6667 5.33331V6.66665H5.33333V5.33331H10.6667Z" fill="currentColor"/>
</g>
</svg>
