<svg width="16" height="16" viewBox="0 0 16 16" fill="none" xmlns="http://www.w3.org/2000/svg">
<g id="flow-chart">
<path id="Vector" d="M4.00002 14.3334C2.71135 14.3334 1.66669 13.2887 1.66669 12C1.66669 10.7114 2.71135 9.6667 4.00002 9.6667C5.05682 9.6667 5.94953 10.3693 6.23656 11.3328L10 11.333V10L11.3334 9.99964V6.1623L9.83802 4.66629H6.00002V6.00006H2.00002V2.00006H6.00002V3.33296H9.83802L12 1.17163L14.8284 4.00006L12.6667 6.16096V9.99964L14 10V14H10V12.6663L6.23668 12.6669C5.94978 13.6306 5.05697 14.3334 4.00002 14.3334ZM4.00002 11C3.44773 11 3.00002 11.4478 3.00002 12C3.00002 12.5524 3.44773 13 4.00002 13C4.55231 13 5.00002 12.5524 5.00002 12C5.00002 11.4478 4.55231 11 4.00002 11ZM12.6667 11.3334H11.3334V12.6667H12.6667V11.3334ZM12 3.05724L11.0572 4.00006L12 4.94286L12.9428 4.00006L12 3.05724ZM4.66669 3.33339H3.33335V4.66672H4.66669V3.33339Z" fill="currentColor"/>
</g>
</svg>
