<svg width="16" height="16" viewBox="0 0 16 16" fill="none" xmlns="http://www.w3.org/2000/svg">
<g id="chat-history-line">
<path id="Vector" d="M7.99998 1.33337C11.6818 1.33337 14.6666 4.31814 14.6666 8.00004C14.6666 11.6819 11.6818 14.6667 7.99998 14.6667C6.86531 14.6667 5.79681 14.3832 4.86151 13.8832L1.33331 14.6667L2.11751 11.1398C1.61706 10.2042 1.33331 9.13524 1.33331 8.00004C1.33331 4.31814 4.31808 1.33337 7.99998 1.33337ZM7.99998 2.66671C5.05446 2.66671 2.66665 5.05452 2.66665 8.00004C2.66665 8.88984 2.88373 9.74544 3.29323 10.511L3.52633 10.9468L3.08961 12.9109L5.05457 12.4746L5.4901 12.7074C6.25541 13.1165 7.11058 13.3334 7.99998 13.3334C10.9455 13.3334 13.3333 10.9456 13.3333 8.00004C13.3333 5.05452 10.9455 2.66671 7.99998 2.66671ZM8.66665 4.66671V8.00004H11.3333V9.33337H7.33331V4.66671H8.66665Z" fill="currentColor"/>
</g>
</svg>
