<svg width="16" height="16" viewBox="0 0 16 16" fill="none" xmlns="http://www.w3.org/2000/svg">
<g id="menu-search-line">
<path id="Vector" d="M10.3333 3.33333C9.04467 3.33333 8 4.378 8 5.66667C8 6.95533 9.04467 8 10.3333 8C11.622 8 12.6667 6.95533 12.6667 5.66667C12.6667 4.378 11.622 3.33333 10.3333 3.33333ZM6.66667 5.66667C6.66667 3.64162 8.30827 2 10.3333 2C12.3584 2 14 3.64162 14 5.66667C14 6.43833 13.7616 7.15433 13.3545 7.745L15.1381 9.5286L14.1953 10.4714L12.4117 8.6878C11.821 9.09493 11.105 9.33333 10.3333 9.33333C8.30827 9.33333 6.66667 7.69173 6.66667 5.66667ZM2 2.66667H5.33333V4H2V2.66667ZM2 7.33333H5.33333V8.66667H2V7.33333ZM14 12V13.3333H2V12H14Z" fill="currentColor"/>
</g>
</svg>
