<svg width="16" height="16" viewBox="0 0 16 16" fill="none" xmlns="http://www.w3.org/2000/svg">
<g id="settings-2-line" clip-path="url(#clip0_2004_356)">
<path id="Vector" d="M5.79091 2.66676L7.52866 0.92903C7.789 0.668676 8.21113 0.668676 8.47146 0.92903L10.2092 2.66676H12.6667C13.0349 2.66676 13.3334 2.96524 13.3334 3.33343V5.79096L15.0711 7.52871C15.3315 7.78904 15.3315 8.21118 15.0711 8.47151L13.3334 10.2092V12.6668C13.3334 13.035 13.0349 13.3334 12.6667 13.3334H10.2092L8.47146 15.0712C8.21113 15.3315 7.789 15.3315 7.52866 15.0712L5.79091 13.3334H3.33338C2.9652 13.3334 2.66672 13.035 2.66672 12.6668V10.2092L0.928984 8.47151C0.668631 8.21118 0.668631 7.78904 0.928984 7.52871L2.66672 5.79096V3.33343C2.66672 2.96524 2.9652 2.66676 3.33338 2.66676H5.79091ZM4.00005 4.0001V6.34324L2.3432 8.00011L4.00005 9.65698V12.0001H6.3432L8.00006 13.657L9.65693 12.0001H12.0001V9.65698L13.6569 8.00011L12.0001 6.34324V4.0001H9.65693L8.00006 2.34324L6.3432 4.0001H4.00005ZM8.00006 10.6668C6.52729 10.6668 5.33338 9.47284 5.33338 8.00011C5.33338 6.52734 6.52729 5.33343 8.00006 5.33343C9.4728 5.33343 10.6667 6.52734 10.6667 8.00011C10.6667 9.47284 9.4728 10.6668 8.00006 10.6668ZM8.00006 9.33344C8.73646 9.33344 9.3334 8.73651 9.3334 8.00011C9.3334 7.26371 8.73646 6.66678 8.00006 6.66678C7.26366 6.66678 6.66673 7.26371 6.66673 8.00011C6.66673 8.73651 7.26366 9.33344 8.00006 9.33344Z" fill="currentColor"/>
</g>
<defs>
<clipPath id="clip0_2004_356">
<rect width="16" height="16" fill="currentColor"/>
</clipPath>
</defs>
</svg>
