<svg width="20" height="20" viewBox="0 0 20 20" fill="none" xmlns="http://www.w3.org/2000/svg">
<g id="centos-fill">
<path id="Vector" d="M10.0001 10.884L13.7251 14.6092L10.0001 18.3334L6.27508 14.6084L10.0001 10.884ZM3.33315 13.434L6.56565 16.6665L3.33341 16.6667L3.33315 13.434ZM16.6665 13.434L16.6667 16.6667L13.434 16.6665L16.6665 13.434ZM14.6084 6.27505L18.3334 10.0001L14.6092 13.7251L10.884 10.0001L14.6084 6.27505ZM5.39175 6.27505L9.11616 10.0001L5.39091 13.7242L1.66675 10.0001L5.39175 6.27505ZM10.0001 1.66672L13.7242 5.39088L10.0001 9.11613L6.27508 5.39172L10.0001 1.66672ZM6.56565 3.33312L3.33315 6.56562L3.33341 3.33338L6.56565 3.33312ZM16.6667 3.33338L16.6665 6.56562L13.434 3.33312L16.6667 3.33338Z" fill="url(#paint0_linear_5008_2191)"/>
</g>
</svg>
