<svg width="20" height="20" viewBox="0 0 20 20" fill="none" xmlns="http://www.w3.org/2000/svg">
<g id="contacts-book-2-fill">
<path id="Vector" d="M16.6667 18.3334H5C3.61929 18.3334 2.5 17.2141 2.5 15.8334V4.16672C2.5 2.78601 3.61929 1.66672 5 1.66672H16.6667C17.1269 1.66672 17.5 2.03982 17.5 2.50005V17.5001C17.5 17.9603 17.1269 18.3334 16.6667 18.3334ZM15.8333 16.6667V15.0001H5C4.53977 15.0001 4.16667 15.3731 4.16667 15.8334C4.16667 16.2936 4.53977 16.6667 5 16.6667H15.8333ZM10 8.33338C10.9205 8.33338 11.6667 7.58719 11.6667 6.66672C11.6667 5.74624 10.9205 5.00005 10 5.00005C9.0795 5.00005 8.33333 5.74624 8.33333 6.66672C8.33333 7.58719 9.0795 8.33338 10 8.33338ZM7.5 11.6667H12.5C12.5 10.286 11.3807 9.16672 10 9.16672C8.61925 9.16672 7.5 10.286 7.5 11.6667Z" fill="url(#paint0_linear_5008_2199)"/>
</g>
</svg>
