<svg width="20" height="20" viewBox="0 0 20 20" fill="none" xmlns="http://www.w3.org/2000/svg">
<g id="user-community-fill">
<path id="Vector" d="M4.36149 6.44163C5.54419 4.57193 7.62785 3.33338 10.0002 3.33338C12.3725 3.33338 14.4562 4.57193 15.6389 6.44163L17.0474 5.55064C15.5721 3.21838 12.9677 1.66672 10.0002 1.66672C7.03273 1.66672 4.42827 3.21838 2.95297 5.55064L4.36149 6.44163ZM10.0002 16.6667C7.62785 16.6667 5.54419 15.4282 4.36149 13.5585L2.95297 14.4495C4.42827 16.7817 7.03273 18.3334 10.0002 18.3334C12.9677 18.3334 15.5721 16.7817 17.0474 14.4495L15.6389 13.5585C14.4562 15.4282 12.3725 16.6667 10.0002 16.6667ZM10 10.0001C11.3807 10.0001 12.5 8.8808 12.5 7.50005C12.5 6.11934 11.3807 5.00005 10 5.00005C8.61925 5.00005 7.5 6.11934 7.5 7.50005C7.5 8.8808 8.61925 10.0001 10 10.0001ZM10 10.8334C11.8409 10.8334 13.3333 12.3258 13.3333 14.1667H6.66667C6.66667 12.3258 8.15905 10.8334 10 10.8334ZM5 10.0001C5 11.3808 3.88071 12.5001 2.5 12.5001C1.11929 12.5001 0 11.3808 0 10.0001C0 8.6193 1.11929 7.50005 2.5 7.50005C3.88071 7.50005 5 8.6193 5 10.0001ZM17.5 12.5001C18.8807 12.5001 20 11.3808 20 10.0001C20 8.6193 18.8807 7.50005 17.5 7.50005C16.1192 7.50005 15 8.6193 15 10.0001C15 11.3808 16.1192 12.5001 17.5 12.5001Z" />
</g>
</svg>
