<svg width="20" height="20" viewBox="0 0 20 20" fill="none" xmlns="http://www.w3.org/2000/svg">
<g id="user-5-fill">
<path id="Vector" d="M6.15774 13.7822C4.44904 12.5751 3.33325 10.5846 3.33325 8.33338C3.33325 4.65148 6.31802 1.66672 9.99992 1.66672C13.6818 1.66672 16.6666 4.65148 16.6666 8.33338C16.6666 10.5846 15.5508 12.5751 13.8421 13.7822L15.5779 17.7497C15.6702 17.9606 15.574 18.2062 15.3632 18.2985C15.3105 18.3215 15.2537 18.3334 15.1962 18.3334H4.80368C4.57356 18.3334 4.38701 18.1468 4.38701 17.9167C4.38701 17.8592 4.3989 17.8024 4.42194 17.7497L6.15774 13.7822ZM6.76534 9.14205C7.12673 10.5922 8.43784 11.6667 9.99992 11.6667C11.562 11.6667 12.8731 10.5922 13.2345 9.14205L11.6172 8.73772C11.4365 9.4628 10.7809 10.0001 9.99992 10.0001C9.21892 10.0001 8.56334 9.4628 8.38267 8.73772L6.76534 9.14205Z" />
</g>
</svg>
